<svg width="63" height="71" viewBox="0 0 63 71" fill="none" xmlns="http://www.w3.org/2000/svg">
<path d="M30.2782 43.4685C29.1737 43.4685 28.2782 42.5731 28.2782 41.4685V39.0151C28.2782 37.9106 29.1737 37.0151 30.2782 37.0151H32.7218C33.8263 37.0151 34.7218 37.9106 34.7218 39.0151V41.4685C34.7218 42.5731 33.8263 43.4685 32.7218 43.4685H30.2782ZM15.3712 43.4685C14.2667 43.4685 13.3712 42.5731 13.3712 41.4685V39.0151C13.3712 37.9106 14.2667 37.0151 15.3712 37.0151H17.8148C18.9194 37.0151 19.8148 37.9106 19.8148 39.0151V41.4685C19.8148 42.5731 18.9194 43.4685 17.8148 43.4685H15.3712ZM45.1852 43.4685C44.0806 43.4685 43.1852 42.5731 43.1852 41.4685V39.0151C43.1852 37.9106 44.0806 37.0151 45.1852 37.0151H47.6288C48.7333 37.0151 49.6288 37.9106 49.6288 39.0151V41.4685C49.6288 42.5731 48.7333 43.4685 47.6288 43.4685H45.1852ZM30.2782 58.113C29.1737 58.113 28.2782 57.2176 28.2782 56.113V53.6596C28.2782 52.5551 29.1737 51.6596 30.2782 51.6596H32.7218C33.8263 51.6596 34.7218 52.5551 34.7218 53.6596V56.113C34.7218 57.2176 33.8263 58.113 32.7218 58.113H30.2782ZM15.3712 58.113C14.2667 58.113 13.3712 57.2176 13.3712 56.113V53.6596C13.3712 52.5551 14.2667 51.6596 15.3712 51.6596H17.8148C18.9194 51.6596 19.8148 52.5551 19.8148 53.6596V56.113C19.8148 57.2176 18.9194 58.113 17.8148 58.113H15.3712ZM45.1852 58.113C44.0806 58.113 43.1852 57.2176 43.1852 56.113V53.6596C43.1852 52.5551 44.0806 51.6596 45.1852 51.6596H47.6288C48.7333 51.6596 49.6288 52.5551 49.6288 53.6596V56.113C49.6288 57.2176 48.7333 58.113 47.6288 58.113H45.1852ZM2.5 70.5C1.39543 70.5 0.5 69.6046 0.5 68.5V10.3962C0.5 9.29163 1.39543 8.3962 2.5 8.3962H10.3967C11.5013 8.3962 12.3967 7.50077 12.3967 6.3962V2.5C12.3967 1.39543 13.2921 0.5 14.3967 0.5H15.7539C16.8585 0.5 17.7539 1.39543 17.7539 2.5V6.3962C17.7539 7.50077 18.6493 8.3962 19.7539 8.3962H43.3896C44.4941 8.3962 45.3896 7.50077 45.3896 6.3962V2.5C45.3896 1.39543 46.285 0.5 47.3896 0.5H48.6033C49.7079 0.5 50.6033 1.39543 50.6033 2.5V6.3962C50.6033 7.50077 51.4987 8.3962 52.6033 8.3962H60.5C61.6046 8.3962 62.5 9.29163 62.5 10.3962V68.5C62.5 69.6046 61.6046 70.5 60.5 70.5H2.5ZM5.71372 63.2776C5.71372 64.3821 6.60915 65.2776 7.71372 65.2776H55.2863C56.3909 65.2776 57.2863 64.3821 57.2863 63.2776V31.6238C57.2863 30.5192 56.3909 29.6238 55.2863 29.6238H7.71372C6.60915 29.6238 5.71372 30.5192 5.71372 31.6238V63.2776ZM5.71372 22.4014C5.71372 23.5059 6.60915 24.4014 7.71372 24.4014H55.2863C56.3909 24.4014 57.2863 23.5059 57.2863 22.4014V15.6186C57.2863 14.5141 56.3909 13.6186 55.2863 13.6186H7.71372C6.60915 13.6186 5.71372 14.5141 5.71372 15.6186V22.4014Z" fill="#051F21"/>
</svg>
