<svg width="60" height="96" viewBox="0 0 60 96" fill="none" xmlns="http://www.w3.org/2000/svg">
<path d="M47.3478 47.618L1.75785 8.92055C0.555475 7.89995 -0.030081 6.68499 0.00118892 5.27568C0.0324588 3.86636 0.649284 2.65098 1.85166 1.62953C3.05404 0.608929 4.48539 0.0986328 6.14572 0.0986328C7.80605 0.0986328 9.23791 0.608929 10.4413 1.62953L56.7757 41.0385C57.8691 41.9675 58.6796 43.0082 59.2072 44.1607C59.7357 45.3131 60 46.4656 60 47.618C60 48.7705 59.7357 49.9229 59.2072 51.0754C58.6796 52.2278 57.8691 53.2686 56.7757 54.1975L10.3475 93.6065C9.14511 94.6271 7.72939 95.1242 6.10033 95.0976C4.47026 95.0711 3.05404 94.5475 1.85166 93.5269C0.649284 92.5063 0.0480934 91.2914 0.0480934 89.8821C0.0480934 88.4727 0.649284 87.2574 1.85166 86.2359L47.3478 47.618Z" fill="#E8EAED"/>
</svg>
