<svg width="10" height="16" viewBox="0 0 10 16" fill="none" xmlns="http://www.w3.org/2000/svg">
<path d="M2.1087 7.99673L9.70702 14.5142C9.90742 14.6861 10.005 14.8907 9.9998 15.1281C9.99459 15.3654 9.89179 15.5701 9.69139 15.7422C9.49099 15.9141 9.25243 16 8.97571 16C8.69899 16 8.46035 15.9141 8.25978 15.7422L0.537387 9.10486C0.355148 8.9484 0.220065 8.77312 0.13214 8.57902C0.0440463 8.38493 -2.98023e-07 8.19083 -2.98023e-07 7.99673C-2.98023e-07 7.80263 0.0440463 7.60854 0.13214 7.41444C0.220065 7.22034 0.355148 7.04506 0.537387 6.8886L8.27542 0.251298C8.47582 0.0794078 8.71177 -0.00429981 8.98328 0.00017048C9.25496 0.00464077 9.49099 0.0928194 9.69139 0.264709C9.89179 0.436599 9.99198 0.641223 9.99198 0.878581C9.99198 1.11594 9.89179 1.32064 9.69139 1.49267L2.1087 7.99673Z" fill="#1B7365"/>
</svg>
