<svg width="71" height="70" viewBox="0 0 71 70" fill="none" xmlns="http://www.w3.org/2000/svg">
<path id="Vector" d="M7.5 70C5.575 70 3.92708 69.3146 2.55625 67.9437C1.18542 66.5729 0.5 64.925 0.5 63V14C0.5 12.075 1.18542 10.4271 2.55625 9.05625C3.92708 7.68542 5.575 7 7.5 7H11V0H18V7H46V0H53V7H56.5C58.425 7 60.0729 7.68542 61.4437 9.05625C62.8146 10.4271 63.5 12.075 63.5 14V31.5H56.5V28H7.5V63H32V70H7.5ZM7.5 21H56.5V14H7.5V21ZM39 70V59.2375L58.3375 39.9875C58.8625 39.4625 59.4458 39.0833 60.0875 38.85C60.7292 38.6167 61.3708 38.5 62.0125 38.5C62.7125 38.5 63.3833 38.6312 64.025 38.8937C64.6667 39.1562 65.25 39.55 65.775 40.075L69.0125 43.3125C69.4792 43.8375 69.8438 44.4208 70.1062 45.0625C70.3688 45.7042 70.5 46.3458 70.5 46.9875C70.5 47.6292 70.3833 48.2854 70.15 48.9562C69.9167 49.6271 69.5375 50.225 69.0125 50.75L49.7625 70H39ZM44.25 64.75H47.575L58.1625 54.075L56.5875 52.4125L54.925 50.8375L44.25 61.425V64.75ZM56.5875 52.4125L54.925 50.8375L58.1625 54.075L56.5875 52.4125Z" fill="#051F21"/>
</svg>
