<svg width="59" height="60" viewBox="0 0 59 60" fill="none" xmlns="http://www.w3.org/2000/svg">
<path d="M6.08333 59.25C4.47917 59.25 3.1059 58.6788 1.96354 57.5365C0.821181 56.3941 0.25 55.0208 0.25 53.4167V12.5833C0.25 10.9792 0.821181 9.6059 1.96354 8.46354C3.1059 7.32118 4.47917 6.75 6.08333 6.75H32.1146L26.2812 12.5833H6.08333V53.4167H46.9167V33.1458L52.75 27.3125V53.4167C52.75 55.0208 52.1788 56.3941 51.0365 57.5365C49.8941 58.6788 48.5208 59.25 46.9167 59.25H6.08333ZM17.75 41.75V29.3542L44.5104 2.59375C45.0938 2.01042 45.75 1.57292 46.4792 1.28125C47.2083 0.989583 47.9375 0.84375 48.6667 0.84375C49.4444 0.84375 50.1858 0.989583 50.8906 1.28125C51.5955 1.57292 52.2396 2.01042 52.8229 2.59375L56.9062 6.75C57.441 7.33333 57.8542 7.97743 58.1458 8.68229C58.4375 9.38715 58.5833 10.1042 58.5833 10.8333C58.5833 11.5625 58.4496 12.2795 58.1823 12.9844C57.9149 13.6892 57.4896 14.3333 56.9062 14.9167L30.1458 41.75H17.75ZM23.5833 35.9167H27.6667L44.5833 19L42.5417 16.9583L40.4271 14.9167L23.5833 31.7604V35.9167Z" fill="#051F21"/>
</svg>
