<svg width="71" height="70" viewBox="0 0 71 70" fill="none" xmlns="http://www.w3.org/2000/svg">
<path d="M9.41668 70C8.4376 70 7.60246 69.2912 7.44329 68.3251L0.383085 25.4733C0.182417 24.2553 1.12211 23.1481 2.35648 23.1481H68.6439C69.8781 23.1481 70.8178 24.2551 70.6173 25.473L63.5639 68.3248C63.4049 69.291 62.5697 70 61.5905 70H9.41668ZM12.4385 62.2987C12.5924 63.2704 13.4301 63.9859 14.4139 63.9859H58.3039L63.4423 31.4744C63.6342 30.2604 62.6959 29.1622 61.4669 29.1622H9.53379C8.30448 29.1622 7.36616 30.2608 7.55839 31.4749L12.4385 62.2987ZM24.0375 43.2828C24.0375 44.3874 24.9329 45.2828 26.0375 45.2828H44.9838C46.0883 45.2828 46.9838 44.3874 46.9838 43.2828V41.2687C46.9838 40.1642 46.0883 39.2687 44.9838 39.2687H26.0375C24.9329 39.2687 24.0375 40.1642 24.0375 41.2687V43.2828ZM9.0371 17.5876C7.93253 17.5876 7.0371 16.6922 7.0371 15.5876V13.5735C7.0371 12.469 7.93253 11.5735 9.0371 11.5735H61.9842C63.0887 11.5735 63.9842 12.469 63.9842 13.5735V15.5876C63.9842 16.6922 63.0887 17.5876 61.9842 17.5876H9.0371ZM17.5373 6.01407C16.4327 6.01407 15.5373 5.11863 15.5373 4.01407V2C15.5373 0.89543 16.4327 0 17.5373 0H53.484C54.5885 0 55.484 0.895431 55.484 2V4.01407C55.484 5.11864 54.5885 6.01407 53.484 6.01407H17.5373Z" fill="#051F21"/>
</svg>
