<svg width="51" height="45" viewBox="0 0 51 45" fill="none" xmlns="http://www.w3.org/2000/svg">
<path d="M17.6483 42.1876V37.8126H50.2923V42.1876H17.6483ZM17.6483 24.6876V20.3126H50.2923V24.6876H17.6483ZM17.6483 7.18757V2.81257H50.2923V7.18757H17.6483ZM5.56086 44.8519C4.22648 44.8519 3.08437 44.3768 2.13451 43.4264C1.18416 42.4766 0.708984 41.3344 0.708984 40.0001C0.708984 38.6657 1.18416 37.5236 2.13451 36.5737C3.08437 35.6234 4.22648 35.1482 5.56086 35.1482C6.89523 35.1482 8.03735 35.6234 8.98721 36.5737C9.93756 37.5236 10.4127 38.6657 10.4127 40.0001C10.4127 41.3344 9.93756 42.4766 8.98721 43.4264C8.03735 44.3768 6.89523 44.8519 5.56086 44.8519ZM5.56086 27.3519C4.22648 27.3519 3.08437 26.8768 2.13451 25.9264C1.18416 24.9766 0.708984 23.8344 0.708984 22.5001C0.708984 21.1657 1.18416 20.0236 2.13451 19.0737C3.08437 18.1234 4.22648 17.6482 5.56086 17.6482C6.89523 17.6482 8.03735 18.1234 8.98721 19.0737C9.93756 20.0236 10.4127 21.1657 10.4127 22.5001C10.4127 23.8344 9.93756 24.9766 8.98721 25.9264C8.03735 26.8768 6.89523 27.3519 5.56086 27.3519ZM5.56086 9.85194C4.22648 9.85194 3.08437 9.37677 2.13451 8.42642C1.18416 7.47656 0.708984 6.33444 0.708984 5.00007C0.708984 3.66569 1.18416 2.52357 2.13451 1.57371C3.08437 0.623366 4.22648 0.148193 5.56086 0.148193C6.89523 0.148193 8.03735 0.623366 8.98721 1.57371C9.93756 2.52357 10.4127 3.66569 10.4127 5.00007C10.4127 6.33444 9.93756 7.47656 8.98721 8.42642C8.03735 9.37677 6.89523 9.85194 5.56086 9.85194Z" fill="#051F21"/>
</svg>
